HIERARCHY
ROOT Hips
{
	OFFSET 0.00000 0.00000 0.00000
	CHANNELS 6 Xposition Yposition Zposition Zrotation Yrotation Xrotation 
	JOINT LHipJoint
	{
		OFFSET 0 0 0
		CHANNELS 3 Zrotation Yrotation Xrotation
		JOINT LeftHip
		{
			OFFSET 1.84395 -1.68683 0.74144
			CHANNELS 3 Zrotation Yrotation Xrotation
			JOINT LeftKnee
			{
				OFFSET 2.27037 -6.23779 0.00000
				CHANNELS 3 Zrotation Yrotation Xrotation
				JOINT LeftAnkle
				{
					OFFSET 2.56918 -7.05877 0.00000
					CHANNELS 3 Zrotation Yrotation Xrotation
					JOINT LeftToe
					{
						OFFSET 0.22276 -0.61202 1.71784
						CHANNELS 3 Zrotation Yrotation Xrotation
						End Site
						{
							OFFSET 0.00000 -0.00000 0.91613
						}
					}
				}
			}
		}
	}
	JOINT RHipJoint
	{
		OFFSET 0 0 0
		CHANNELS 3 Zrotation Yrotation Xrotation
		JOINT RightHip
		{
			OFFSET -1.76833 -1.68684 0.74144
			CHANNELS 3 Zrotation Yrotation Xrotation
			JOINT RightKnee
			{
				OFFSET -2.49360 -6.85110 0.00000
				CHANNELS 3 Zrotation Yrotation Xrotation
				JOINT RightAnkle
				{
					OFFSET -2.55538 -7.02085 0.00000
					CHANNELS 3 Zrotation Yrotation Xrotation
					JOINT RightToe
					{
						OFFSET -0.21516 -0.59115 1.68050
						CHANNELS 3 Zrotation Yrotation Xrotation
						End Site
						{
							OFFSET -0.00000 -0.00000 0.89604
						}
					}
				}
			}
		}
	}
	JOINT lowerback
	{
		OFFSET 0 0 0
		CHANNELS 3 Zrotation Yrotation Xrotation
		JOINT Chest
		{
			OFFSET 0.06382 1.72312 -0.19613
			CHANNELS 3 Zrotation Yrotation Xrotation
			JOINT Chest2
			{
				OFFSET -0.00055 1.73507 0.23859
				CHANNELS 3 Zrotation Yrotation Xrotation
				JOINT lowerneck
				{
					OFFSET 0 0 0
					CHANNELS 3 Zrotation Yrotation Xrotation
					JOINT Neck
					{
						OFFSET 0.03638 1.65562 0.09633
						CHANNELS 3 Zrotation Yrotation Xrotation
						JOINT Head
						{
							OFFSET 0.06388 1.62807 -0.32386
							CHANNELS 3 Zrotation Yrotation Xrotation
							End Site
							{
								OFFSET 0.00995 1.67644 -0.12021
							}
						}
					}
				}
				JOINT LeftCollar
				{
					OFFSET 0 0 0
					CHANNELS 3 Zrotation Yrotation Xrotation
					JOINT LeftShoulder
					{
						OFFSET 3.09648 1.42991 0.28122
CHANNELS 3 Zrotation Xrotation Yrotation
						JOINT LeftElbow
						{
OFFSET 0 -5.118780 -0.000000
CHANNELS 3 Zrotation Xrotation Yrotation
							JOINT LeftWrist
							{
OFFSET 0 -3.599710 0.000000
CHANNELS 3 Zrotation Xrotation Yrotation
								JOINT lhand
								{
									OFFSET 0 0 0
CHANNELS 3 Zrotation Xrotation Yrotation
									JOINT LFingers
									{
OFFSET 0 -0.628770 0.000000
CHANNELS 3 Zrotation Xrotation Yrotation
										End Site
										{
OFFSET 0 -0.506930 0.000000
										}
									}
								}
								JOINT LThumb
								{
OFFSET 0 0.000000 0.000000
CHANNELS 3 Zrotation Xrotation Yrotation
									End Site
									{
OFFSET 0 -0.514670 0.514670
									}
								}
							}
						}
					}
				}
				JOINT RightCollar
				{
					OFFSET 0 0 0
					CHANNELS 3 Zrotation Yrotation Xrotation
					JOINT RightShoulder
					{
						OFFSET -3.33565 1.14597 0.05047
CHANNELS 3 Zrotation Xrotation Yrotation
						JOINT RightElbow
						{
OFFSET 0 -5.490200 0.000000
CHANNELS 3 Zrotation Xrotation Yrotation
							JOINT RightWrist
							{
OFFSET 0 -3.206590 -0.000000
CHANNELS 3 Zrotation Xrotation Yrotation
								JOINT rhand
								{
									OFFSET 0 0 0
CHANNELS 3 Zrotation Xrotation Yrotation
									JOINT RFingers
									{
OFFSET 0 -0.691880 0.000000
CHANNELS 3 Zrotation Xrotation Yrotation
										End Site
										{
OFFSET 0 -0.557810 0.000000
										}
									}
								}
								JOINT RThumb
								{
OFFSET 0 0.000000 0.000000
CHANNELS 3 Zrotation Xrotation Yrotation
									End Site
									{
OFFSET 0 -0.566330 0.566330
									}
								}
							}
						}
					}
				}
			}
		}
	}
}
MOTION
Frames: 7
Frame Time: 0.008333333333333333
0.154705 17.597305 7.747321 -8.580287 -5.560978 21.586962 0.000000 0.000000 0.000000 -11.334347 -54.851577 15.983417 0.093258 -1.969646 -5.421691 10.670242 35.135959 -73.840160 5.459412 13.883180 42.771472 0.000000 0.000000 0.000000 14.673154 32.309018 -15.065370 -0.132163 -2.343299 6.455341 1.075403 -19.695787 -16.075678 -0.003032 0.357004 -0.980929 5.618902 0.926081 5.883291 4.934851 1.692534 1.032803 1.820110 0.809312 -2.222316 -4.434609 -3.967796 -14.284524 4.763066 -4.993728 7.361266 1.782230 -2.276896 4.758756 0.000000 0.000000 0.000000 -64.910354 -72.887784 -110.666815 7.426875 -12.619633 0.822363 20.956685 35.968059 -3.632302 0.000000 0.000000 0.000000 -7.125000 0.000000 0.000000 -4.645239 33.841499 -1.274901 0.000000 0.000000 0.000000 -14.334747 -75.761280 40.702028 -23.623891 -34.764015 -7.491035 7.329838 26.855237 69.551402 0.000000 0.000000 0.000000 7.125000 0.000000 0.000000 101.375098 -70.177612 122.705335
0.156657 17.597395 7.743516 -8.545982 -5.573897 21.609791 0.000000 0.000000 0.000000 -11.410016 -54.902610 16.076812 0.096505 -2.003437 -5.515207 10.724549 35.155215 -73.949198 5.469088 13.893268 42.811736 0.000000 0.000000 0.000000 14.574659 32.338508 -15.127543 -0.132511 -2.346102 6.463172 1.075866 -19.717954 -16.133543 -0.002521 0.321232 -0.882732 5.472981 0.905485 5.825688 4.971669 1.649830 1.059880 1.943801 0.790399 -2.167570 -4.683330 -3.860533 -13.984551 4.981621 -4.831873 7.161209 1.909688 -2.196398 4.652671 0.000000 0.000000 0.000000 -64.352010 -73.146644 -111.718728 7.629978 -12.951306 0.867350 20.927350 33.268541 -3.144713 0.000000 0.000000 0.000000 -7.125000 0.000000 0.000000 -4.632153 33.320554 -1.329838 0.000000 0.000000 0.000000 -12.357748 -74.518828 40.972679 -25.340912 -36.550337 -8.492060 1.248473 33.592916 73.282708 0.000000 0.000000 0.000000 7.125000 0.000000 0.000000 114.446408 -70.133339 134.776585
0.161200 17.596858 7.741716 -8.547583 -5.459816 21.584007 0.000000 0.000000 0.000000 -11.446950 -55.098186 16.130101 0.093769 -1.974632 -5.435515 10.745413 35.306343 -74.050216 5.410371 13.831533 42.566829 0.000000 0.000000 0.000000 14.609235 32.184287 -15.121867 -0.131811 -2.340474 6.447542 1.070815 -19.678070 -16.107738 -0.003480 0.381011 -1.046960 5.590487 0.866384 5.899697 4.969192 1.616012 1.006754 1.876979 0.770712 -2.261039 -4.581739 -4.015003 -14.538347 4.764596 -5.033839 7.798489 1.796103 -2.294282 4.941500 0.000000 0.000000 0.000000 -62.100960 -73.465587 -112.512325 8.081940 -13.685511 0.971473 21.134139 31.396773 -2.438577 0.000000 0.000000 0.000000 -7.125000 0.000000 0.000000 -4.415377 32.572534 -1.347041 0.000000 0.000000 0.000000 -12.688695 -74.117514 40.974446 -25.639827 -36.850784 -8.670816 -9.752250 44.381671 77.003069 0.000000 0.000000 0.000000 7.125000 0.000000 0.000000 128.040772 -69.023979 147.050431
0.163158 17.596817 7.741263 -8.498781 -5.451217 21.526580 0.000000 0.000000 0.000000 -11.628294 -55.199815 16.269642 0.091979 -1.955833 -5.383620 10.747106 35.414895 -74.098299 5.410764 13.831981 42.568528 0.000000 0.000000 0.000000 14.584854 32.078723 -15.093997 -0.131912 -2.340977 6.448885 1.070555 -19.651498 -16.033558 -0.003063 0.357642 -0.982697 5.553617 0.869830 6.017767 4.982045 1.634378 0.945956 1.907221 0.777587 -2.391563 -5.263845 -3.852333 -13.800663 5.853175 -4.813824 7.094516 2.278707 -2.152712 4.639334 0.000000 0.000000 0.000000 -59.324897 -74.002311 -114.328048 8.979375 -15.127430 1.194897 19.547699 25.488021 -3.321488 0.000000 0.000000 0.000000 -7.125000 0.000000 0.000000 -5.768087 33.463356 -1.638138 0.000000 0.000000 0.000000 -14.908156 -74.471893 40.839391 -25.411984 -36.619388 -8.535591 -0.074096 33.601930 73.495201 0.000000 0.000000 0.000000 7.125000 0.000000 0.000000 115.666498 -70.190933 135.754931
0.162364 17.593912 7.742836 -8.524596 -5.317707 21.451009 0.000000 0.000000 0.000000 -11.717719 -55.379908 16.453084 0.089980 -1.934514 -5.324748 10.691923 35.714482 -74.121422 5.341592 13.758433 42.278257 0.000000 0.000000 0.000000 14.713219 32.026161 -14.922070 -0.129332 -2.317805 6.384917 1.079712 -19.730855 -16.100122 -0.004332 0.425610 -1.169562 5.696684 0.850481 6.060271 4.957904 1.624035 0.909896 1.802624 0.769736 -2.448178 -4.892343 -4.055368 -14.567266 5.321617 -5.100621 8.036977 2.012306 -2.297191 5.047791 0.000000 0.000000 0.000000 -53.950631 -75.156316 -116.923600 10.749546 -17.902564 1.698692 17.621720 17.366560 -5.492641 0.000000 0.000000 0.000000 -7.125000 0.000000 0.000000 -7.578873 35.655273 -1.751436 0.000000 0.000000 0.000000 -16.880116 -74.374768 40.141961 -25.671786 -36.880935 -8.690640 21.396413 12.433788 71.097245 0.000000 0.000000 0.000000 7.125000 0.000000 0.000000 101.643471 -67.459490 126.474045
0.155170 17.591847 7.745741 -8.643922 -5.291815 21.379959 0.000000 0.000000 0.000000 -11.697036 -55.394019 16.665541 0.091300 -1.948590 -5.363590 10.686736 35.880701 -74.181478 5.310264 13.724928 42.146501 0.000000 0.000000 0.000000 14.934081 32.229641 -14.694556 -0.128059 -2.306764 6.354275 1.095441 -19.882430 -16.261064 -0.002506 0.315845 -0.867795 5.701027 0.937848 6.175004 4.996012 1.757166 0.849662 1.827045 0.833354 -2.575034 -4.551605 -4.213844 -15.054068 4.855950 -5.331879 8.763110 1.778466 -2.418224 5.343108 0.000000 0.000000 0.000000 -44.833046 -77.088107 -118.199269 13.693043 -22.292531 2.711657 16.640382 8.008741 -7.398021 0.000000 0.000000 0.000000 -7.125000 0.000000 0.000000 -8.663698 37.568850 -1.597593 0.000000 0.000000 0.000000 -17.153377 -72.794220 39.271525 -27.627209 -38.770553 -9.889404 36.750911 -4.362578 66.568485 0.000000 0.000000 0.000000 7.125000 0.000000 0.000000 88.864584 -63.760561 118.255439
0.151878 17.592100 7.749832 -8.638100 -5.204007 21.253187 0.000000 0.000000 0.000000 -11.906809 -55.547854 16.907615 0.086392 -1.896008 -5.218470 10.666914 36.033115 -74.209242 5.242464 13.651733 41.859795 0.000000 0.000000 0.000000 15.059257 32.097859 -14.500699 -0.125361 -2.282679 6.287534 1.095792 -19.877279 -16.239806 -0.001812 0.273897 -0.752676 5.804308 1.073205 6.276246 4.888443 1.956209 0.781606 1.639179 0.928080 -2.693362 -4.520311 -4.333554 -15.203597 4.998368 -5.527667 9.175543 1.794518 -2.496534 5.510227 0.000000 0.000000 0.000000 -37.011973 -78.249243 -116.224699 16.430236 -26.100093 3.833501 17.054368 4.013979 -8.595245 0.000000 0.000000 0.000000 -7.125000 0.000000 0.000000 -8.501652 38.831195 -1.302795 0.000000 0.000000 0.000000 -19.826925 -71.810559 38.285658 -29.125769 -40.132112 -10.841759 39.808224 -14.496865 65.325118 0.000000 0.000000 0.000000 7.125000 0.000000 0.000000 86.145262 -62.700014 116.635255
